<svg width="197" height="199" viewBox="0 0 197 199" fill="none" xmlns="http://www.w3.org/2000/svg">
<g clip-path="url(#clip0_1_31972)">
<path d="M196.444 99.4751C196.444 128.399 183.972 154.404 164.146 172.411C166.041 164.754 167.064 156.793 167.064 148.529C167.064 94.1299 122.977 50.0423 68.5782 50.0423C43.1037 50.0423 19.8657 59.7091 2.38983 75.5928C13.0421 32.756 51.7847 0.988647 97.9573 0.988647C152.356 0.988647 196.444 45.0763 196.444 99.4751Z" fill="#181824"/>
<path d="M147.198 148.718C147.198 164.146 142.763 178.552 135.067 190.72C124.567 195.004 113.118 197.544 101.177 197.885C117.061 187.309 127.524 169.226 127.524 148.68C127.524 116.041 101.063 89.5804 68.4243 89.5804C37.7183 89.5804 12.4712 113.008 9.59018 142.956C4.51045 132.72 1.2124 121.462 -0.000671387 109.558C13.5706 85.8275 39.121 69.868 68.4243 69.868C111.943 69.868 147.236 105.123 147.236 148.68L147.198 148.718Z" fill="#F94F3A"/>
<path d="M68.4197 188.107C90.1726 188.107 107.807 170.473 107.807 148.72C107.807 126.967 90.1726 109.333 68.4197 109.333C46.6671 109.333 29.0329 126.967 29.0329 148.72C29.0329 170.473 46.6671 188.107 68.4197 188.107Z" fill="#181824"/>
</g>
<defs>
<clipPath id="clip0_1_31972">
<rect width="196.586" height="197.023" fill="white" transform="translate(0 0.988647)"/>
</clipPath>
</defs>
</svg>
